# xmcd
#
# Track frame offsets:
#	150
#	44515
#	65079
#	74017
#	81646
#	99248
#	115016
#	127145
#	141471
#	152228
#	165474
#	169554
#	183795
#	210044
#	223349
#	258675
#
# Disc length: 3598 seconds
#
# Revision: 1
# Processed by: cddbd v1.4PL0 Copyright (c) Steve Scherf et al.
# Submitted via: EasyCDDAExtractor 5.1.0
#
DISCID=f40e0c10
DTITLE=Amram Bitoun Tordjman - Poèmes de Viscto Hugo
DYEAR=2001
DGENRE=Alternative
TTITLE0=Trois ans après
TTITLE1=Chanson
TTITLE2=Demain dès l'aube
TTITLE3=Les pauvres gens
TTITLE4=Les pauvres gens
TTITLE5=Les pauvres gens
TTITLE6=Les pauvres gens
TTITLE7=Les pauvres gens
TTITLE8=Les pauvres gens
TTITLE9=Les pauvres gens
TTITLE10=Les pauvres gens
TTITLE11=Les pauvres gens
TTITLE12=Les pauvres gens
TTITLE13=Paroles dans l'ombre
TTITLE14=Un soir que je regardais le ciel
TTITLE15=Hier au soir
EXTD=
EXTT0=
EXTT1=
EXTT2=
EXTT3=
EXTT4=
EXTT5=
EXTT6=
EXTT7=
EXTT8=
EXTT9=
EXTT10=
EXTT11=
EXTT12=
EXTT13=
EXTT14=
EXTT15=
PLAYORDER=
